<svg width="135" height="130" viewBox="0 0 135 130" fill="none" xmlns="http://www.w3.org/2000/svg">
<path d="M2.98437 0L70.3868 61.2245L67.8245 64.0703L2.98437 6L2.98437 0Z" fill="black"/>
<path d="M131.324 1.74365L65.4509 61.4004L68.0133 64.2462L131.324 7.24341L131.324 1.74365Z" fill="black"/>
<path d="M1.33789 19L67.9291 79.0861L66.654 80.5022L2.68878 22.9076L1.33789 19Z" fill="black"/>
<path d="M131.654 19L65.0631 79.0861L66.3382 80.5022L130.303 22.9076L131.654 19Z" fill="black"/>
<path d="M3.01367 33.2437L69.5411 93.4006L66.9787 96.2464L3.01344 38.6518L3.01367 33.2437Z" fill="black"/>
<path d="M131.318 33.4873L64.791 93.6443L67.3533 96.4901L131.319 38.8955L131.318 33.4873Z" fill="black"/>
<path d="M131.521 129V48.9998L127.501 52.5964V129H131.521Z" fill="black"/>
<path d="M3.00391 129L3.00391 48.9998L7.02391 52.5964L7.02391 129H3.00391Z" fill="black"/>
<path d="M120 128.533V58.0001L118 61.5711V128.533L120 128.533Z" fill="black"/>
<path d="M15 129.533L15 59.0001L17 62.5711L17 129.533L15 129.533Z" fill="black"/>
<path d="M110 129V68.3836L106 71.9706V129L110 129Z" fill="black"/>
<path d="M24.5254 129L24.5254 68.3836L28.5254 71.9706L28.5254 129L24.5254 129Z" fill="black"/>
</svg>
