<svg width="135" height="130" viewBox="0 0 135 130" fill="none" xmlns="http://www.w3.org/2000/svg">
<path d="M2.98437 0L70.3868 61.2245L67.8245 64.0703L2.98437 6L2.98437 0Z" fill="black"/>
<path d="M131.324 1.74365L65.4509 61.4004L68.0133 64.2462L131.324 7.24341L131.324 1.74365Z" fill="black"/>
<path d="M3.01367 17.2437L69.5411 77.4006L66.9787 80.2464L3.01344 22.6518L3.01367 17.2437Z" fill="black"/>
<path d="M131.318 17.4873L64.791 77.6443L67.3533 80.4901L131.319 22.8955L131.318 17.4873Z" fill="black"/>
<path d="M3.01367 33.2437L69.5411 93.4006L66.9787 96.2464L3.01344 38.6518L3.01367 33.2437Z" fill="black"/>
<path d="M131.525 126H106V129.756H131.525L131.525 126Z" fill="black"/>
<path d="M3 126H28.5258V129.756H3.00005L3 126Z" fill="black"/>
<path d="M131.318 33.4873L64.791 93.6443L67.3533 96.4901L131.319 38.8955L131.318 33.4873Z" fill="black"/>
<path d="M131.521 129V48.9998L127.501 52.5964V129H131.521Z" fill="black"/>
<path d="M3.00391 129L3.00391 48.9998L7.02391 52.5964L7.02391 129H3.00391Z" fill="black"/>
<path d="M121 129V58.4674L117 62.0384V129L121 129Z" fill="black"/>
<path d="M13.5254 129L13.5254 58.4674L17.5254 62.0384L17.5254 129L13.5254 129Z" fill="black"/>
<path d="M110 129V68.3836L106 71.9706V129L110 129Z" fill="black"/>
<path d="M24.5254 129L24.5254 68.3836L28.5254 71.9706L28.5254 129L24.5254 129Z" fill="black"/>
</svg>
